<?xml version="1.0" encoding="UTF-8"?>
<svg id="Layer_2" data-name="Layer 2" xmlns="http://www.w3.org/2000/svg" viewBox="0 0 19.79 14.59">
  <defs>
    <style>
      .cls-1 {
        fill: #fff;
      }
    </style>
  </defs>
  <g id="Layer_1-2" data-name="Layer 1">
    <g>
      <path class="cls-1" d="M17.19,7.29c0,4.01-3.26,7.29-7.29,7.3-4.01,0-7.29-3.26-7.3-7.29C2.59,3.28,5.86,0,9.89,0c4.01,0,7.29,3.26,7.3,7.29Zm-7.32,6.03c3.32,.01,6.03-2.66,6.05-5.98,.03-3.33-2.67-6.06-6-6.07-3.32-.02-6.03,2.67-6.05,5.98-.02,3.33,2.67,6.06,6,6.07Z"/>
      <path class="cls-1" d="M0,7.21C.05,4.65,.95,2.34,2.8,.4c.25-.26,.52-.39,.86-.2,.28,.16,.38,.43,.28,.73-.05,.15-.17,.29-.28,.41-1.24,1.31-2.02,2.85-2.27,4.63-.39,2.72,.34,5.12,2.18,7.17,.09,.1,.18,.18,.26,.29,.22,.29,.2,.64-.04,.87-.25,.23-.61,.25-.87-.02-.35-.36-.69-.74-.98-1.14C.65,11.41,.03,9.45,0,7.21Z"/>
      <path class="cls-1" d="M19.79,7.39c-.05,2.57-.96,4.87-2.81,6.8-.25,.26-.53,.38-.86,.18-.26-.16-.36-.41-.27-.7,.05-.15,.16-.29,.27-.41,1.43-1.52,2.24-3.31,2.37-5.39,.15-2.45-.61-4.58-2.24-6.41-.09-.11-.2-.2-.28-.31-.21-.27-.19-.62,.04-.84,.24-.24,.61-.28,.86-.01,.36,.37,.71,.75,1.01,1.16,1.28,1.73,1.89,3.69,1.92,5.93Z"/>
      <path class="cls-1" d="M10.52,5.9c0,.86,0,1.72,0,2.58,0,.48-.24,.75-.64,.75-.38,0-.62-.27-.62-.73,0-1.72,0-3.44,0-5.17,0-.48,.25-.76,.64-.75,.39,0,.61,.28,.62,.77,0,.85,0,1.7,0,2.54Z"/>
      <path class="cls-1" d="M9.11,10.59c0-.44,.34-.78,.77-.79,.43,0,.78,.34,.79,.77,0,.43-.34,.79-.77,.79-.42,0-.78-.35-.79-.78Z"/>
    </g>
  </g>
</svg>