<?xml version="1.0" encoding="UTF-8"?>
<svg id="Layer_2" data-name="Layer 2" xmlns="http://www.w3.org/2000/svg" viewBox="0 0 19.43 19.48">
  <defs>
    <style>
      .cls-1 {
        fill: #fff;
      }
    </style>
  </defs>
  <g id="Layer_1-2" data-name="Layer 1">
    <g>
      <path class="cls-1" d="M10.75,11.88c-.13,.87-.24,1.65-.37,2.42-.02,.14-.13,.27-.23,.38-.88,.89-1.77,1.77-2.65,2.66-.22,.22-.42,.24-.65,0-1.57-1.58-3.15-3.15-4.73-4.73-.22-.22-.21-.41,0-.62,.91-.9,1.81-1.81,2.72-2.71,.1-.1,.25-.18,.39-.2,.72-.12,1.45-.24,2.18-.32,.17-.02,.41,.05,.53,.17,.88,.85,1.75,1.73,2.61,2.6,.11,.11,.16,.26,.2,.33Zm-5.45-.06c-.11,.08-.26,.15-.27,.23-.02,.13,.02,.31,.11,.4,.58,.61,1.19,1.2,1.78,1.8,.16,.16,.34,.26,.53,.09,.21-.19,.1-.38-.07-.55-.59-.59-1.18-1.18-1.77-1.76-.08-.08-.18-.12-.3-.21Z"/>
      <path class="cls-1" d="M15.56,7.44c.27-.15,.52-.24,.71-.4,.33-.28,.62-.6,.92-.91,.23-.24,.43-.2,.65,.02,.23,.22,.3,.42,.04,.67-.72,.71-1.43,1.44-2.16,2.14-.11,.1-.31,.14-.47,.14-.26,0-.54-.03-.79-.11-.45-.15-.77,.01-1.05,.35-.22,.26-.48,.49-.72,.73-.19,.2-.39,.21-.59,0-.9-.91-1.8-1.81-2.71-2.72-.19-.19-.17-.38,.01-.56,.32-.32,.66-.63,.96-.97,.11-.12,.17-.33,.16-.49-.01-.33-.07-.66-.14-.98-.07-.3,.02-.5,.23-.71,.67-.65,1.33-1.32,1.99-1.98,.31-.31,.44-.31,.72-.03,.28,.28,.27,.4-.05,.72-.27,.27-.54,.53-.8,.81-.46,.48-.47,1.01-.01,1.48,.78,.79,1.57,1.59,2.37,2.36,.19,.18,.46,.27,.73,.43Zm-3.92-.74c-.09,.08-.23,.13-.25,.22-.03,.11-.01,.28,.06,.37,.21,.25,.43,.5,.69,.7,.11,.08,.31,.04,.47,.05,0-.17,.05-.38-.03-.49-.18-.25-.43-.46-.66-.67-.07-.07-.17-.1-.28-.17Z"/>
      <path class="cls-1" d="M16.66,0c.11,.08,.22,.13,.29,.2,.77,.77,1.54,1.54,2.31,2.31,.23,.23,.2,.43-.02,.65-1.12,1.12-2.24,2.23-3.36,3.36-.24,.24-.44,.23-.67,0-.75-.76-1.5-1.51-2.26-2.26-.23-.22-.24-.42,0-.64,1.13-1.12,2.26-2.26,3.39-3.38,.09-.08,.2-.14,.32-.22Z"/>
      <path class="cls-1" d="M5.39,16.92c-.08,.12-.13,.22-.21,.3-.69,.7-1.39,1.39-2.09,2.09-.23,.23-.42,.21-.64-.01-.75-.76-1.51-1.52-2.28-2.28-.23-.22-.23-.42,0-.64,.69-.68,1.38-1.37,2.06-2.06,.24-.24,.44-.23,.67,0,.74,.76,1.5,1.5,2.25,2.26,.09,.09,.15,.22,.23,.34Z"/>
    </g>
  </g>
</svg>