<?xml version="1.0" encoding="UTF-8"?>
<svg id="Layer_2" data-name="Layer 2" xmlns="http://www.w3.org/2000/svg" viewBox="0 0 23.13 64.19">
  <defs>
    <style>
      .cls-1, .cls-2 {
        fill: #fff;
      }

      .cls-2 {
        opacity: .5;
      }

      .cls-3 {
        opacity: .8;
      }
    </style>
  </defs>
  <g id="Layer_1-2" data-name="Layer 1">
    <g class="cls-3">
      <path class="cls-1" d="M10.34,21.93c-.21-.28-.24-.61-.24-.94,0-1.09,0-2.18,0-3.27,0-.32-.09-.43-.42-.5-1.27-.26-2.57-.3-3.81-.05-1.76,.36-3.53,.56-5.29,.88-.39,.07-.53-.07-.5-.41,.02-.29-.37-.73,.32-.81,1.3-.15,2.59-.39,3.89-.55,.39-.05,.33-.23,.29-.47-.04-.26-.04-.51-.45-.41-.84,.19-1.7,.23-2.62,.18,.68-.4,.68-.42,1.4-.43,.73,0,1.33-.3,1.8-.82,.34-.38,.72-.16,1.08-.15,.17,0,.07,.16,.05,.25-.07,.36-.16,.72-.34,1.04-.11,.2-.1,.41,0,.58,.12,.21,.34,.09,.5,.05,.58-.14,1.17-.09,1.76-.09,.34,0,.48-.11,.43-.44,0-.02,0-.04,0-.06,.02-1.16,.02-1.15-1.1-1.04-.15,.01-.41,.18-.44-.13-.02-.24,.23-.18,.38-.2q1.14-.19,1.14-1.36c0-.27-.06-.56,.06-.82,.09-.2,.08-.51,.47-.38,.26,.08,.28-.15,.29-.34,.02-.27-.09-.56,.16-.83,0,.19-.01,.38,0,.56,.02,.28-.12,.61,.3,.78,.11,.04,.13,.36,.14,.56,.02,.35,0,.7,0,1.05,0,.21-.01,.44,.28,.44,.31,0,.2-.25,.2-.41,.01-2.87,.02-5.73,.02-8.6,0-1.13,0-2.25,0-3.38,0-.58,.24-1.04,.78-1.3,.51-.24,1.14-.12,1.54,.27,.32,.32,.41,.72,.41,1.16,0,1.85,0,3.69,0,5.54,0,1.01,.04,2.03,.04,3.04,0,1.09-.02,2.17-.03,3.26,0,.18-.07,.38,.23,.39,.31,0,.25-.2,.25-.38,0-.33,0-.66,0-1,0-.13-.03-.32,.04-.37,.58-.43,.34-1.09,.44-1.69,.21,.21,.13,.4,.13,.57,0,.36-.11,.7,.48,.74,.34,.02,.35,.42,.35,.72,0,1.01,.02,2.03,0,3.04-.01,.44,.08,.59,.57,.6,2.53,.04,5.02,.49,7.51,.84,.27,.04,.32,.14,.3,.39-.07,.86-.09,.87-.94,.75-1.09-.17-2.2-.27-3.28-.51-.7-.16-1.41-.34-2.11-.42-.8-.09-1.62,0-2.43,0-.17,0-.17,.15-.22,.27-.4,1.11-.8,2.22-1.22,3.32-.16,.43-.02,.93-.34,1.32-.36,.09-.23,.54-.56,.72,0-.35-.02-.65,.11-.97,.19-.47,.42-.93,.4-1.47-.01-.25-.07-.37-.34-.37-.53,0-1.06,0-1.59-.02-.28-.02-.24,.15-.24,.31-.01,.59-.02,1.17-.03,1.76Zm2.5-2.28l.13,.02c.3-.83,.6-1.66,.92-2.58-.34,.07-.55,.13-.76,.15-.25,.03-.29,.16-.29,.38,0,.68,0,1.35,0,2.03Zm-1.13-1.21c-.49,0-.84,.32-.78,.72,.04,.29,.23,.54,.57,.57,.42,.03,.77-.29,.74-.69-.03-.33-.28-.53-.52-.6Zm1.13-3.46c0,.18,0,.37,0,.55,0,.12-.06,.29,.15,.29,.17,0,.34-.04,.34-.27,0-.39,0-.77,0-1.16,0-.19-.1-.25-.27-.26-.22,0-.22,.14-.22,.29,0,.18,0,.37,0,.55Zm-3.23-.07c0,.25,0,.45,0,.65,0,.2,.14,.23,.29,.26,.24,.04,.21-.14,.21-.28,0-.2,.03-.41,0-.6-.06-.26,.22-.74-.22-.75-.55-.01-.13,.52-.27,.73Zm.98,2.89c.05,.22,.17,.37,.41,.35,.23-.02,.38-.15,.37-.39-.01-.22-.18-.32-.38-.32-.23,0-.38,.11-.4,.36Zm1.22,.03c.04,.19,.15,.32,.36,.31,.22-.01,.32-.15,.31-.36-.01-.21-.14-.33-.36-.32-.21,.01-.31,.16-.32,.37Zm.31-1.82c.13-.05,.38,.1,.4-.14,.02-.2-.16-.31-.37-.32-.21,0-.37,.09-.37,.31,0,.24,.22,.1,.34,.15Zm-1.1,0c.11-.04,.32,.05,.32-.18,0-.22-.19-.24-.35-.25-.19-.02-.34,.11-.34,.29,0,.21,.23,.11,.37,.15Z"/>
      <path class="cls-1" d="M12.98,39.17c.13,.32,.23,.66,.4,.95,.23,.4,.55,.74,.77,1.14,.47,.85,.53,1.73,.11,2.63-.06,.13-.09,.28-.14,.41-.25,.36-.5,.73-.75,1.09-.24,.01-.24,.19-.24,.36-.01,.53-.02,1.06-.02,1.59,0,.13,.02,.26,.28,.31v-1.74c.16,.17,.08,.38,.08,.58,0,1.81-.02,3.63-.04,5.44-.02-.07-.04-.14-.05-.21,0-.18,0-.33-.27-.29-.24,.04-.22,.18-.22,.35-.01,3.62-.03,7.24-.05,10.86,0,1.14-.84,1.79-1.85,1.45-.56-.19-.88-.67-.88-1.39,0-1.38,0-2.76,0-4.15,0-2.02-.06-4.04-.05-6.06,0-2.08,.02-4.16,.06-6.23,0-.44-.12-.7-.55-.8-.33-.28-.49-.68-.74-1.01-.61-.79-.48-1.7-.39-2.59,.05-.48,.43-.84,.71-1.22,.43-.6,.81-1.23,.89-1.98,.22-.18,.19-.46,.25-.7,.11-.48,.24-.94,.49-1.37,.43-.72,1.08-.49,1.36,.06,.1,.21,.16,.44,.25,.65,.23,.53,.2,1.15,.54,1.65,0,0,0-.01,0-.01,.02,.08,.04,.16,.06,.23Zm.26,11.16s.11-.08,.11-.13c0-.09-.06-.17-.15-.16-.03,0-.08,.09-.09,.15,0,.06,0,.14,.14,.14Zm-.08-.39c.06-.07,.11-.11,.11-.14,0-.06,0-.16-.04-.19-.09-.07-.11,.04-.11,.09,0,.06,.02,.13,.04,.23Z"/>
      <path class="cls-2" d="M12.92,38.95c-.34-.5-.31-1.11-.54-1.65-.09-.21-.15-.44-.25-.65-.28-.56-.93-.78-1.36-.06-.25,.43-.39,.89-.49,1.37-.05,.24-.02,.52-.25,.7,.09-.63-.19-1.2-.3-1.79,.15-.31,.12-.62,.01-.93-.06-.29,.06-.48,.34-.51,.27-.02,.27-.18,.27-.38,0-4.38-.01-8.75-.02-13.13,0-.59,.02-1.17,.03-1.76,0-.16-.04-.33,.24-.31,.53,.03,1.06,.03,1.59,.02,.27,0,.33,.12,.34,.37,.02,.54-.21,1-.4,1.47-.13,.32-.12,.62-.11,.97,.33-.18,.21-.63,.56-.72,0,4.33,0,8.66,0,12.99,0,.26,.04,.51,.11,.76,.09,.4-.15,.83,.12,1.22,.03,.67,.15,1.33,.1,2Z"/>
      <path class="cls-1" d="M17.16,37.97c-.5,0-1,0-1.49,0-.11,0-.36,.02-.3-.12,.2-.57-.5-1.13-.01-1.69,.03-.03,.01-.11,.02-.16q.1-.85,.95-.84c.79,.01,1.58,.03,2.38,.02,.31,0,.47,.05,.45,.42-.04,.68-.04,1.36-.02,2.05,.01,.34-.12,.4-.42,.39-.51-.02-1.03,0-1.55,0,0-.02,0-.04,0-.06Z"/>
      <path class="cls-1" d="M5.63,37.92c-.51,0-1.03-.01-1.54,0-.29,.01-.38-.1-.37-.38,.03-.7,.03-1.4,.03-2.09,0-.28,.08-.39,.37-.38,1.01,.03,2.02,.05,3.03,.05,.29,0,.38,.08,.37,.37-.01,.32-.13,.68,.25,.9-.08,.14,.26,.37-.14,.46-.25,.05-.15,.36-.12,.53,.08,.52-.15,.63-.61,.58-.42-.04-.84,0-1.27,0,0-.01,0-.02,0-.04Z"/>
      <path class="cls-2" d="M13.43,51.94c.01-1.81,.03-3.63,.04-5.44,0-.19,.08-.4-.08-.58,0-.17,0-.35-.01-.52,.25-.36,.5-.73,.75-1.09,.59,2.59,.2,5.2,.22,7.81,0,.44-.18,.92-.19,1.39,0,.18-.06,.27-.25,.27-.18,0-.26-.07-.29-.25-.05-.3-.13-.6-.19-.89,0-.19,.01-.39,.02-.58,0-.04,0-.07,0-.11Z"/>
      <path class="cls-2" d="M8.83,44.45c.25,.33,.42,.73,.74,1.01-.12,.43-.12,.88-.11,1.32,.01,1.72,.02,3.43,.04,5.15,0,.5-.31,.96-.18,1.48,.04,.16,.02,.38-.27,.37-.29,0-.33-.2-.33-.41-.01-1.05-.22-2.09-.19-3.14,.05-1.29-.02-2.58-.02-3.87,0-.65,.15-1.28,.32-1.9Z"/>
      <path class="cls-1" d="M12.82,36.95c-.27-.38-.03-.82-.12-1.22,.03,.24,.1,.43,.4,.37,.17-.03,.29,.04,.44,.14,.18,.12,.3,.24,.25,.43-.05,.19-.26,.25-.43,.29-.18,.03-.36,0-.55,0Z"/>
      <path class="cls-1" d="M9.75,35.94c.1,.31,.14,.62-.01,.93-.16-.08-.37-.02-.45-.3-.12-.45,.31-.42,.46-.63Z"/>
      <path class="cls-1" d="M13.44,52.05c0,.19-.01,.39-.02,.58,.1-.19-.54-.4,.02-.58Z"/>
      <path class="cls-1" d="M12.98,39.17c-.02-.08-.04-.16-.06-.23,.08,.06,.08,.14,.06,.23Z"/>
    </g>
  </g>
</svg>