<?xml version="1.0" encoding="UTF-8"?>
<svg id="Layer_2" data-name="Layer 2" xmlns="http://www.w3.org/2000/svg" viewBox="0 0 22.73 62.21">
  <defs>
    <style>
      .cls-1 {
        opacity: .5;
      }

      .cls-1, .cls-2 {
        fill: #fff;
      }

      .cls-2 {
        opacity: .8;
      }
    </style>
  </defs>
  <g id="Layer_1-2" data-name="Layer 1">
    <g>
      <path class="cls-2" d="M22.73,35.3c-.15,6.27-.78,12.49-1.67,18.69-.25,1.74-.27,3.52-.38,5.29-.09,1.34-.57,1.82-1.92,1.84-.7,.01-1.4,0-2.09,.04-.39,.02-.92-.21-1.09,.42,0,.03-.13,.04-.19,.06-2.4,.45-4.79,.97-7.22,.1-.71-.25-1.44-.47-2.18-.57-.8-.1-1.63-.02-2.44-.07-1.04-.06-1.49-.59-1.59-1.74-.22-2.64-.37-5.29-.72-7.92C.26,44.05-.26,36.64,.13,29.19c.34-6.4,1.36-12.66,3.79-18.63C5.42,6.85,7.49,3.51,10.32,.66c.87-.88,1.14-.88,2-.02,3.1,3.12,5.26,6.83,6.82,10.93,1.87,4.93,2.82,10.06,3.22,15.3,.22,2.8,.26,5.62,.38,8.43Zm-1.69,3.08c.08,.01,.17,.03,.25,.04,.09-.37,.24-.73,.25-1.1,.05-2.37,.16-4.75,.07-7.11-.07-1.69-.28-3.39-.68-5.03-.71-2.89-2.54-4.78-5.49-5.53-2.04-.52-4.11-.53-6.17-.36-4.5,.37-6.98,2.57-7.81,6.98-.7,3.75-.58,7.55-.32,11.34,.02,.28,.18,.55,.28,.82,.06,0,.12-.01,.18-.02,.02-.24,.05-.48,.06-.72,.07-2.33,.08-4.65,.21-6.97,.21-3.98,2.14-6.27,5.8-6.95,2.14-.39,4.31-.4,6.47-.13,2.03,.25,3.92,.86,5.23,2.58,1.02,1.35,1.36,2.95,1.45,4.59,.11,2.11,.13,4.23,.19,6.35,.01,.41,.04,.82,.06,1.23Zm-5.43,13.25c.84,0,1.68,0,2.51,0,.72,0,.83-.18,.72-.89-.14-.87-.26-1.74-.35-2.62-.06-.53-.05-1.07-.06-1.6-.02-.47-.21-.73-.73-.72-1.49,.02-2.98,.01-4.47,0-.44,0-.63,.2-.64,.63-.04,1.51-.08,3.02-.14,4.53-.02,.53,.22,.69,.72,.67,.81-.02,1.63,0,2.44,0Zm-8.66,0c.84,0,1.68-.02,2.51,0,.54,.02,.76-.18,.73-.73-.06-1.49-.1-2.98-.13-4.46-.01-.53-.3-.66-.77-.65-1.37,.01-2.75,.04-4.12,0-.7-.02-.93,.24-.98,.92-.09,1.39-.25,2.77-.42,4.15-.06,.53,.07,.8,.65,.78,.84-.02,1.67,0,2.51,0Zm11.76-19.49s.03,0,.05,0c.01-.26,.02-.51,.04-.77,.03-.7,.06-.72-.75-1.58-.19-.2-.58-.31-.88-.3-1,.05-2.11-.43-2.97,.58-.14,.17-.52,.16-.5,.56,.06,1.07,.06,2.14,.16,3.2,.1,1.04,.76,1.59,1.83,1.62,.37,.01,.74,0,1.12,0,1.13-.02,1.82-.65,1.9-1.78,.04-.51,0-1.02,0-1.53Zm-9.88,.04s.04,0,.07,0c.01-.23,0-.47,.04-.7,.12-.73,.03-1.36-.73-1.69-.35-.15-.74-.33-1.09-.31-.93,.06-2.01-.45-2.71,.63-.78-.07-.55,.5-.54,.9,0,.86,.04,1.72,.08,2.58,.07,1.22,.75,1.86,1.96,1.87,.33,0,.65,0,.98,0,1.18,0,1.86-.64,1.94-1.82,.03-.49,0-.97,0-1.46Z"/>
      <path class="cls-1" d="M21.04,38.38c-.02-.41-.05-.82-.06-1.23-.06-2.12-.08-4.23-.19-6.35-.09-1.64-.43-3.23-1.45-4.59-1.31-1.73-3.19-2.34-5.23-2.58-2.16-.26-4.32-.26-6.47,.13-3.66,.67-5.59,2.97-5.8,6.95-.12,2.32-.14,4.65-.21,6.97,0,.24-.04,.48-.06,.72-.06,0-.12,.01-.18,.02-.1-.27-.26-.54-.28-.82-.26-3.79-.38-7.59,.32-11.34,.83-4.41,3.31-6.61,7.81-6.98,2.06-.17,4.13-.16,6.17,.36,2.95,.75,4.79,2.64,5.49,5.53,.4,1.64,.61,3.35,.68,5.03,.09,2.37-.02,4.74-.07,7.11,0,.37-.16,.74-.25,1.1-.08-.01-.17-.03-.25-.04Z"/>
      <path class="cls-1" d="M15.61,51.63c-.81,0-1.63-.02-2.44,0-.49,.01-.74-.14-.72-.67,.06-1.51,.1-3.02,.14-4.53,.01-.43,.2-.63,.64-.63,1.49,0,2.98,.01,4.47,0,.52,0,.71,.25,.73,.72,.02,.53,0,1.07,.06,1.6,.09,.87,.21,1.75,.35,2.62,.12,.72,0,.89-.72,.89-.84,0-1.68,0-2.51,0Z"/>
      <path class="cls-1" d="M6.95,51.63c-.84,0-1.68-.02-2.51,0-.58,.01-.71-.26-.65-.78,.16-1.38,.32-2.76,.42-4.15,.05-.68,.28-.94,.98-.92,1.37,.04,2.74,.02,4.12,0,.47,0,.76,.12,.77,.65,.03,1.49,.07,2.98,.13,4.46,.02,.55-.19,.75-.73,.73-.84-.03-1.67,0-2.51,0Z"/>
      <path class="cls-1" d="M18.71,32.13c0,.51,.03,1.02,0,1.53-.08,1.13-.77,1.77-1.9,1.78-.37,0-.74,.01-1.12,0-1.06-.03-1.73-.59-1.83-1.62-.1-1.06-.1-2.13-.16-3.2-.02-.39,.35-.39,.5-.56,.86-1.01,1.97-.53,2.97-.58,.29-.02,.69,.1,.88,.3,.81,.86,.79,.88,.75,1.58-.01,.26-.02,.51-.04,.77-.02,0-.03,0-.05,0Zm-1.38,1.88c-.38-.56-1.73-.56-2.13,0h2.13Z"/>
      <path class="cls-1" d="M8.82,32.18c0,.49,.03,.98,0,1.46-.07,1.18-.76,1.81-1.94,1.82-.33,0-.65,0-.98,0-1.21-.01-1.89-.65-1.96-1.87-.05-.86-.07-1.72-.08-2.58,0-.39-.24-.96,.54-.9,.7-1.08,1.78-.57,2.71-.63,.36-.02,.74,.16,1.09,.31,.76,.33,.85,.96,.73,1.69-.04,.23-.03,.46-.04,.7-.02,0-.04,0-.07,0Zm-3.56,1.82h2.22c-.46-.52-1.72-.53-2.22,0Z"/>
      <path class="cls-2" d="M17.33,34.01h-2.13c.41-.56,1.76-.56,2.13,0Z"/>
      <path class="cls-2" d="M5.27,34c.5-.53,1.76-.52,2.22,0h-2.22Z"/>
    </g>
  </g>
</svg>