<?xml version="1.0" encoding="UTF-8"?>
<svg id="Layer_2" data-name="Layer 2" xmlns="http://www.w3.org/2000/svg" viewBox="0 0 49.98 59.91">
  <defs>
    <style>
      .cls-1 {
        fill: #0013ff;
      }

      .cls-2 {
        opacity: .5;
      }

      .cls-2, .cls-3 {
        fill: #fff;
      }

      .cls-3 {
        opacity: .8;
      }

      .cls-4 {
        fill: #972527;
      }

      .cls-5 {
        fill: #a8a8a8;
        opacity: .3;
      }

      .cls-6 {
        fill: red;
      }

      .cls-7 {
        fill: #ff0;
      }

      .cls-8 {
        fill: #13ff00;
      }
    </style>
  </defs>
  <g id="Layer_1-2" data-name="Layer 1">
    <g>
      <g>
        <path class="cls-8" d="M13.32,16.48h-3.64c-.83,0-1.5-.67-1.5-1.5-.32-1.38-.59-3.2-.54-5.33,.04-1.68,.27-3.14,.54-4.31,0-.1,0-.63,.44-1.06,.27-.27,.65-.44,1.06-.44h3.64c.83,0,1.5,.67,1.5,1.5,.27,1.21,.5,2.72,.53,4.46,.03,2.07-.23,3.83-.53,5.19-.02,.15-.1,.6-.49,.99-.4,.4-.86,.49-1.01,.51Z"/>
        <path class="cls-1" d="M40.37,16.48h-3.64c-.83,0-1.5-.67-1.5-1.5-.32-1.38-.59-3.2-.54-5.33,.04-1.68,.27-3.14,.54-4.31,0-.1,0-.63,.44-1.06,.27-.27,.65-.44,1.06-.44h3.64c.83,0,1.5,.67,1.5,1.5,.27,1.21,.5,2.72,.53,4.46,.03,2.07-.23,3.83-.53,5.19-.02,.15-.1,.6-.49,.99-.4,.4-.86,.49-1.01,.51Z"/>
        <path class="cls-6" d="M8.17,51.4H2.94c-1.19,0-2.15-.96-2.15-2.15-.45-1.98-.85-4.6-.78-7.67,.06-2.42,.39-4.51,.78-6.2,0-.14,.01-.91,.63-1.52,.39-.39,.93-.63,1.52-.63h5.23c1.19,0,2.15,.96,2.15,2.15,.39,1.74,.72,3.91,.76,6.41,.05,2.97-.33,5.51-.76,7.46-.03,.22-.15,.86-.7,1.42-.57,.58-1.24,.7-1.45,.73Z"/>
        <path class="cls-7" d="M47.07,51.4h-5.23c-1.19,0-2.15-.96-2.15-2.15-.45-1.98-.85-4.6-.78-7.67,.06-2.42,.39-4.51,.78-6.2,0-.14,.01-.91,.63-1.52,.39-.39,.93-.63,1.52-.63h5.23c1.19,0,2.15,.96,2.15,2.15,.39,1.74,.72,3.91,.76,6.41,.05,2.97-.33,5.51-.76,7.46-.03,.22-.15,.86-.7,1.42-.57,.58-1.24,.7-1.45,.73Z"/>
      </g>
      <g>
        <path class="cls-3" d="M49.94,37.51c-.17-4.36-1.2-8.25-4.81-11.05-.5-.39-.65-.93-.77-1.5-.76-3.74-1.53-7.48-2.28-11.23-.24-1.2,.14-2.38,.28-3.56,.09-.75,1.11-.14,1.39-.75-.83,0-1.66-.01-2.49,0-.63,0-1.14-.29-1.06-.89,.07-.5,.09-1.33,1.05-1.19,.65,.09,1.01-.17,.95-.87-.12-.47-.22-.94-.35-1.4-.17-.62-.24-1.3-.96-1.63-.5-.23-2.65-1.47-5.39-2.06C28.04-.23,20-.26,15.54,.98c-1.98,.33-3.73,1.27-5.56,2.03-1.02,.43-1.47,1.06-1.92,2.12-.07,.27-.2,1.07-.25,1.33-.07,.68,.25,.99,.91,.88,.94-.16,1.03,.64,1.08,1.15,.06,.68-.49,.88-1.16,.95-.8,.08-1.58-.33-2.37,0,1.22,.24,1.56,1,1.59,2.2,.03,1.02,.07,2.01-.15,3.03-.73,3.39-1.41,6.78-2.06,10.18-.15,.79-.49,1.38-1.1,1.9C1.77,29.12,.49,32.14,.19,35.81c-.52,6.34,.66,12.36,2.63,18.32,.73,2.2,2.11,3.53,4.16,4.34,1.2,.47,2.43,.82,3.68,1.06-.08-.13-.15-.27-.18-.41-.2-.74,.4-1.26,1.34-1.13,.52,.07,1.03,.32,1.4,.66,.25-.26,.68-.39,1.21-.32,.94,.12,1.79,.83,1.88,1.56,0,0,0,0,0,0,5.8,.02,11.61,.02,17.41-.02,.1-.73,.95-1.43,1.88-1.55,.52-.07,.96,.06,1.21,.32,.37-.34,.88-.59,1.4-.66,.94-.12,1.54,.39,1.34,1.13-.04,.16-.12,.31-.22,.46,.63-.14,1.19-.3,1.56-.45,1.1-.46,2.31-.63,3.36-1.24,1.1-.64,2.07-1.43,2.51-2.66,2.06-5.72,3.41-11.56,3.17-17.72ZM37.83,6.21c1.11,.69,1.61,1.46,1.82,2.56,1.05,5.54,2.17,11.08,3.26,16.61,.05,.26,.08,.53,.11,.79,.02,.22,.07,.47-.2,.56-.3,.1-.51-.05-.64-.31-.06-.12-.11-.24-.15-.37-1.8-5.54-3.61-11.07-4.26-16.9-.1-.92-.14-1.84,.06-2.93ZM7.09,25.5c1.08-5.63,2.22-11.25,3.29-16.88,.2-1.07,.81-1.72,1.78-2.46,.36,2.25,0,4.22-.38,6.16-.88,4.59-2.24,9.05-3.72,13.48-.13,.4-.17,1.06-.74,.92-.71-.17-.29-.83-.22-1.23Zm2.26,24.18c-1.55-.34-2.87-.5-4.07-1.11-1.7-.87-2.04-1.55-1.73-3.41,.12-.71,.53-.94,1.12-.66,1.12,.54,2.33,.81,3.5,1.18,.38,.12,.62,.24,.73,.64,.25,.85,.53,1.69,.84,2.52,.26,.69,.03,.91-.39,.85Zm4.6-11.29c-1.59-.19-3.16-.47-4.75-.67-.65-.08-.94-.21-.74-.99,1.43-5.68,2.83-11.38,4.19-17.08,.18-.77,.58-.81,1.23-.81,3.73,.03,7.46,.01,11.19,.01,0,0,0,0,0,0,3.69,0,7.37,.02,11.06-.02,.67,0,1.05,.08,1.22,.82,1.37,5.7,2.76,11.39,4.19,17.08,.2,.82-.18,.87-.78,.97-8.91,1.49-17.85,1.73-26.82,.66Zm31.15,9.88c-1.26,.56-2.53,1-3.89,1.29-.93,.19-1.31,.09-.9-.93,.24-.61,.43-1.26,.62-1.89,.18-.59,.51-.97,1.16-1.12,.9-.2,1.79-.5,2.67-.8,1.69-.56,1.69-.57,1.68,1.39,.28,1.01-.33,1.61-1.35,2.06Z"/>
        <g>
          <path class="cls-2" d="M7.82,6.46c-.07,.68,.25,.99,.91,.88,.94-.16,1.03,.64,1.08,1.15,.06,.68-.49,.88-1.16,.95-.8,.08-1.58-.33-2.37,0-.92-1.47-.53-2.23,1.54-2.99Z"/>
          <path class="cls-2" d="M43.75,9.41c-.83,0-1.66-.01-2.49,0-.63,0-1.14-.29-1.06-.89,.07-.5,.09-1.33,1.05-1.19,.65,.09,1.01-.17,.95-.87,2.03,.75,2.4,1.44,1.55,2.95Z"/>
          <path class="cls-2" d="M25.08,18.87c3.69,0,7.37,.02,11.06-.02,.67,0,1.05,.08,1.22,.82,1.37,5.7,2.76,11.39,4.19,17.08,.2,.82-.18,.87-.78,.97-8.91,1.49-17.85,1.73-26.82,.66-1.59-.19-3.16-.47-4.75-.67-.65-.08-.94-.21-.74-.99,1.43-5.68,2.83-11.38,4.19-17.08,.18-.77,.58-.81,1.23-.81,3.73,.03,7.46,.01,11.19,.01,0,0,0,0,0,0Z"/>
          <path class="cls-5" d="M25.51,54.61c-3.33,.34-6.6-.17-9.88-.24-2.01-.04-3.79-.69-4.31-3.27-.19-.95-.85-1.79-1.02-2.82-.18-1.12,.9-2.54,1.95-2.3,1.35,.32,2.72,.24,4.08,.36,4.35,.4,8.73,.54,13.08,.27,2.88-.18,5.8-.14,8.65-.73,.16-.03,.33-.02,.5-.02,1.51-.05,1.62,.04,1.32,1.57-.37,1.95-1.06,3.76-1.95,5.52-.78,1.54-2.13,1.32-3.25,1.38-3.07,.17-6.13,.58-9.17,.26Z"/>
          <path class="cls-2" d="M12.16,6.16c.36,2.25,0,4.22-.38,6.16-.88,4.59-2.24,9.05-3.72,13.48-.13,.4-.17,1.06-.74,.92-.71-.17-.29-.83-.22-1.23,1.08-5.63,2.22-11.25,3.29-16.88,.2-1.07,.81-1.72,1.78-2.46Z"/>
          <path class="cls-2" d="M37.83,6.21c1.11,.69,1.61,1.46,1.82,2.56,1.05,5.54,2.17,11.08,3.26,16.61,.05,.26,.08,.53,.11,.79,.02,.22,.07,.47-.2,.56-.3,.1-.51-.04-.64-.31-.06-.12-.11-.24-.15-.37-1.8-5.54-3.61-11.07-4.26-16.9-.1-.92-.14-1.84,.06-2.93Z"/>
          <path class="cls-4" d="M9.32,49.7c-1.55-.34-2.87-.5-4.07-1.11-1.7-.87-2.04-1.55-1.73-3.41,.12-.71,.53-.94,1.12-.66,1.12,.54,2.33,.81,3.5,1.18,.38,.12,.62,.24,.73,.64,.25,.85,.53,1.69,.84,2.52,.26,.69,.03,.91-.39,.85Z"/>
          <path class="cls-4" d="M46.43,46.23c.28,1.01-.33,1.61-1.35,2.06-1.26,.56-2.54,1-3.89,1.29-.93,.19-1.31,.09-.9-.93,.24-.61,.43-1.26,.62-1.89,.18-.59,.51-.97,1.16-1.12,.9-.2,1.79-.5,2.67-.8,1.69-.56,1.69-.57,1.68,1.39Z"/>
        </g>
        <path class="cls-5" d="M12.76,5.62s10.66-4.53,24.45,0h0c.31-1.31,.17-2.69-.42-3.91h0s-12.31-3.85-23.78,0h0c-.46,1.16-.57,2.43-.31,3.66l.06,.26Z"/>
      </g>
      <path class="cls-4" d="M9.45,49.7c-1.55-.34-2.87-.5-4.07-1.11-1.7-.87-2.04-1.55-1.73-3.41,.12-.71,.53-.94,1.12-.66,1.12,.54,2.33,.81,3.5,1.18,.38,.12,.62,.24,.73,.64,.25,.85,.53,1.69,.84,2.52,.26,.69,.03,.91-.39,.85Z"/>
      <path class="cls-4" d="M46.55,46.23c.28,1.01-.33,1.61-1.35,2.06-1.26,.56-2.54,1-3.89,1.29-.93,.19-1.31,.09-.9-.93,.24-.61,.43-1.26,.62-1.89,.18-.59,.51-.97,1.16-1.12,.9-.2,1.79-.5,2.67-.8,1.69-.56,1.69-.57,1.68,1.39Z"/>
      <path class="cls-4" d="M4.39,43.88c11.74,3.54,24.36,3.24,36.35,1.18,1.73-.28,3.44-.7,5.17-.99-1.68,.52-3.37,1.03-5.07,1.47-11.91,2.81-25,3.12-36.45-1.66h0Z"/>
    </g>
  </g>
</svg>