<?xml version="1.0" encoding="UTF-8"?>
<svg id="Layer_2" data-name="Layer 2" xmlns="http://www.w3.org/2000/svg" viewBox="0 0 22.45 16.66">
  <defs>
    <style>
      .cls-1 {
        fill: #fff;
      }
    </style>
  </defs>
  <g id="Layer_1-2" data-name="Layer 1">
    <path class="cls-1" d="M2.87,10.62H1.5c0,.66,0,1.3,0,1.94,0,.57-.31,.93-.77,.92-.45-.01-.73-.36-.73-.91,0-2.51,0-5.03,0-7.54,0-.58,.29-.92,.77-.91,.46,0,.73,.33,.73,.9,0,.64,0,1.28,0,1.95h1.37c0-.45,0-.91,0-1.37,0-.88,.2-1.07,1.09-1.07,.36,0,.72,0,1.13,0,0-.47,0-.89,0-1.31,0-.64,.27-.91,.9-.92,.76,0,1.52,0,2.28,0,.14,0,.28,0,.45,0v-.8c-.2,0-.4,0-.6,0-.45-.02-.76-.32-.76-.74,0-.4,.29-.74,.71-.75,1.65-.01,3.3-.02,4.95,0,.42,0,.7,.36,.68,.76-.01,.41-.3,.69-.73,.72-.19,.01-.38,0-.6,0v.8c.67,0,1.34,0,2.01,0,.8,0,1.04,.24,1.04,1.05,0,.82,0,1.63,0,2.51,.45,0,.87,0,1.29,0,.72,0,.96,.25,.97,.98,0,.3,0,.6,0,.93h.73c0-.32,0-.65,0-.98,0-.36,.09-.67,.44-.84,.33-.16,.62-.05,.89,.16,.77,.59,1.53,1.17,2.3,1.75,.28,.21,.4,.48,.4,.83,0,1.64,.01,3.27-.02,4.91,0,.28-.17,.63-.38,.82-.73,.69-1.52,1.32-2.28,1.98-.26,.22-.54,.36-.88,.2-.35-.16-.47-.45-.47-.82,0-.27,0-.55,0-.84h-.73c0,.29,0,.57,0,.84-.02,.61-.29,.89-.89,.89-2.63,0-5.26,0-7.89,0-.37,0-.64-.14-.86-.42-.77-.96-1.54-1.91-2.33-2.85-.12-.14-.35-.25-.54-.26-.48-.04-.96,0-1.45-.02-.59-.02-.84-.28-.85-.87,0-.52,0-1.05,0-1.61Z"/>
  </g>
</svg>