<?xml version="1.0" encoding="UTF-8"?>
<svg id="Layer_2" data-name="Layer 2" xmlns="http://www.w3.org/2000/svg" viewBox="0 0 14.33 17.19">
  <defs>
    <style>
      .cls-1 {
        fill: #fff;
      }
    </style>
  </defs>
  <g id="Layer_1-2" data-name="Layer 1">
    <path class="cls-1" d="M1.45,14.3v-.42c0-4.05,.02-8.1-.01-12.14C1.42,.54,2.19-.02,3.16,0c2.2,.04,4.41,.01,6.61,.01,1.14,0,1.69,.55,1.69,1.68,0,2.87,0,5.75,0,8.62v.38s.06,.05,.08,.05c1.03,.05,1.34,.38,1.35,1.4,0,.16-.03,.33,.04,.46,.05,.12,.22,.27,.32,.26,.13-.01,.24-.18,.35-.29,.03-.03,.01-.11,.01-.16,0-1.93,0-3.87,0-5.8,0-.04,0-.09-.01-.15-.5-.06-.96-.24-1.18-.7-.14-.29-.17-.64-.22-.96-.13-.71,.1-1.28,.69-1.71,.21-.15,.38-.35,.6-.56-.31-.31-.6-.6-.89-.89-.11-.11-.26-.21-.31-.34-.05-.13-.06-.36,.02-.44,.08-.08,.36-.11,.43-.04,.53,.48,1.03,.99,1.52,1.51,.07,.07,.08,.23,.08,.35,0,3.25,0,6.51,0,9.76,0,.79-.61,1.29-1.31,1.14-.46-.1-.78-.47-.82-.94-.01-.18-.01-.36-.01-.54,0-.57-.1-.66-.7-.61v2.81c.13,.03,.28,.05,.41,.1,.55,.17,.94,.66,.98,1.24,.02,.38,.01,.76,.01,1.14,0,.28-.15,.41-.42,.41-.35,0-.69,0-1.04,0-3.6,0-7.2,0-10.8,0-.53,0-.62-.09-.62-.62,0-.29-.01-.58,.01-.87,.07-.74,.5-1.2,1.23-1.35,.05-.01,.11-.03,.2-.05ZM6.44,6.46c1.01,0,2.01,0,3.02,0,.47,0,.57-.1,.58-.56,0-1.3,0-2.59,0-3.89,0-.45-.11-.56-.55-.56-2.02,0-4.05,0-6.07,0-.43,0-.54,.11-.54,.54,0,1.32,0,2.64,0,3.96,0,.41,.11,.52,.51,.52,1.02,0,2.03,0,3.05,0Z"/>
  </g>
</svg>