<?xml version="1.0" encoding="UTF-8"?>
<svg id="Layer_2" data-name="Layer 2" xmlns="http://www.w3.org/2000/svg" viewBox="0 0 47.04 62.46">
  <defs>
    <style>
      .cls-1, .cls-2, .cls-3 {
        fill: #fff;
      }

      .cls-2 {
        opacity: .5;
      }

      .cls-3, .cls-4 {
        opacity: .8;
      }
    </style>
  </defs>
  <g id="Layer_1-2" data-name="Layer 1">
    <g class="cls-4">
      <path class="cls-1" d="M20.6,34.14c-.74-.1-1.44-.13-2.12-.29-1.34-.31-1.95-1.1-1.96-2.46-.01-.72-.01-1.45,0-2.17,0-.19,.07-.39,.11-.58,.07,0,.13,.01,.2,.02v1.65c.51,.14,.72-.03,.76-.45,0-.07,.02-.14,0-.2-.29-1.27,.32-2.02,1.42-2.52,.42-.19,.8-.49,1.32-.81,0,.58,0,1.04,0,1.51,.02,1.28,.7,1.97,1.97,1.97,.81,0,1.63,0,2.29,0,.88,1.43,1.71,2.77,2.56,4.16-.24,.06-.44,.11-.73,.18-.52,9.01-1.03,18.03-1.56,27.1h-2.7c-.52-9.04-1.04-18.06-1.57-27.1Zm3.29,22.76c0-.97,.02-1.95-.02-2.92,0-.22-.21-.43-.33-.64-.14,.21-.4,.43-.41,.64-.03,1.97-.03,3.93,0,5.9,0,.21,.26,.42,.41,.63,.12-.21,.32-.42,.33-.63,.04-.99,.02-1.99,.02-2.98Z"/>
      <path class="cls-2" d="M28.64,20.62c-1.27,.81-2.52,1.59-3.77,2.38-.17-.26-.32-.51-.52-.82,.17-.12,.35-.25,.53-.36,6.49-4.11,12.99-8.22,19.48-12.34,.06-.04,.11-.07,.17-.11,.94-.59,1.78-.51,2.26,.23,.49,.74,.22,1.55-.72,2.14-1.58,1.01-3.17,2.01-4.76,3.01-3.4,2.15-6.8,4.3-10.2,6.45-1.09,.69-1.73,.54-2.48-.6Z"/>
      <path class="cls-2" d="M18.39,25.92c1.24-.78,2.48-1.57,3.75-2.37,.18,.26,.35,.51,.55,.8-.16,.12-.32,.24-.49,.34-6.57,4.16-13.13,8.33-19.71,12.46-.42,.26-1.03,.41-1.51,.34-.94-.14-1.3-1.42-.66-2.16,.17-.2,.4-.36,.63-.51,4.98-3.16,9.96-6.32,14.94-9.47,1.11-.71,1.75-.56,2.5,.57Z"/>
      <path class="cls-2" d="M26.19,28.34c-.8-1.24-1.58-2.45-2.39-3.71,.27-.19,.53-.36,.83-.56,.93,1.45,1.86,2.9,2.79,4.33,3.38,5.24,6.77,10.48,10.15,15.72,.17,.26,.33,.55,.39,.85,.12,.59-.29,1.27-.84,1.48-.62,.24-1.36,.03-1.74-.54-.74-1.11-1.46-2.23-2.18-3.35-2.53-3.91-5.05-7.82-7.57-11.74-.69-1.07-.56-1.72,.58-2.49Z"/>
      <path class="cls-2" d="M20.86,18.22c.79,1.23,1.57,2.47,2.37,3.71-.28,.18-.52,.33-.82,.52-.58-.9-1.17-1.8-1.75-2.7-3.74-5.79-7.48-11.58-11.22-17.36-.37-.58-.53-1.14-.13-1.76,.34-.51,.84-.73,1.4-.58,.36,.1,.78,.33,.97,.64,3.31,5.07,6.59,10.16,9.86,15.26,.57,.89,.38,1.45-.68,2.28Z"/>
      <path class="cls-3" d="M30.49,14.13c-1.65-.41-3.24-.97-4.87-1.16-1.62-.19-3.28,.02-4.92,.03-.23,0-.57-.04-.68-.19-.74-1.07-1.44-2.18-2.14-3.26,1.81-2.41,5.41-3.3,8.44-2.13,2.82,1.09,4.47,3.8,4.17,6.71Zm-6.14-1.74c0-1.61,.04-3.17-.02-4.72-.03-.75-.69-.34-1.06-.41-.45-.09-.64,.12-.62,.6,.03,.86,0,1.71,0,2.57,0,.65,0,1.29,0,1.95h1.7Z"/>
      <path class="cls-1" d="M30.24,15.85c-.59-.08-.89,.15-.8,.54,.53,2.26-1.13,2.92-2.74,3.77,0-.52,0-1,0-1.48-.01-1.23-.7-1.92-1.94-1.93-.81,0-1.63,0-2.34,0-.67-1.12-1.3-2.17-2.02-3.37,1.19-.09,2.28-.25,3.37-.23,2.17,.02,4.25,.51,6.24,1.36,.4,.17,.54,.38,.52,.81-.03,.65,0,1.31-.01,1.97,0,.2-.05,.41-.07,.61-.07,0-.14,0-.21,0v-2.03Z"/>
      <path class="cls-2" d="M32.46,61.9c-2.48-.39-4.83-.75-7.19-1.12,.09-1.53,.17-2.97,.26-4.52,.85,.12,1.66,.22,2.46,.34,1.31,.2,2.63,.41,3.94,.64,.19,.03,.5,.24,.51,.37,.04,1.39,.02,2.78,.02,4.29Zm-5.08-2.84c0,.63,.56,1.2,1.22,1.2,.67,0,1.22-.52,1.23-1.17,0-.65-.54-1.19-1.21-1.19-.67,0-1.24,.53-1.24,1.17Z"/>
      <path class="cls-2" d="M14.88,61.9c0-1.49,0-2.87,.01-4.24,0-.14,.19-.37,.32-.39,2.07-.34,4.14-.65,6.27-.97,.1,1.53,.19,3.03,.28,4.55-2.3,.35-4.54,.7-6.89,1.06Zm2.3-2.83c0,.65,.54,1.19,1.21,1.2,.66,0,1.23-.54,1.24-1.18,0-.63-.56-1.19-1.22-1.19-.67,0-1.23,.52-1.23,1.17Z"/>
      <path class="cls-1" d="M30.45,21.97v10.34c-.23-.31-.36-.46-.46-.62-1-1.56-2.02-3.11-3-4.68-.17-.27-.27-.62-.28-.94-.03-1.06,0-2.13-.02-3.19-.01-.43,.09-.72,.5-.92,.44-.22,.85-.51,1.25-.75,.87,.4,1.05,1.05,1.02,1.95-.07,2.15-.02,4.3-.02,6.44,0,.44,.05,.83,.78,.75v-8.38c.08,0,.16,0,.24,0Z"/>
      <path class="cls-1" d="M16.79,15.83v8.72c-.07,0-.15,0-.22,0-.02-.18-.05-.36-.05-.54,0-2.92,0-5.84,0-8.76,0-.19,.12-.39,.19-.58,.16,.13,.36,.23,.47,.39,.99,1.51,1.98,3.03,2.94,4.56,.13,.21,.2,.5,.21,.76,.02,1.09-.02,2.17,.02,3.26,.02,.48-.15,.75-.55,.96-.41,.22-.8,.5-1.15,.72-1-.38-1.09-1.12-1.06-2.02,.05-2.24,.02-4.48,.02-6.72,0-.45-.08-.81-.8-.76Z"/>
      <path class="cls-1" d="M14.49,59.62c0,.79,.02,1.58-.01,2.37,0,.14-.19,.28-.3,.41-.08-.14-.23-.27-.23-.41-.02-1.56-.02-3.12,0-4.67,0-.14,.15-.28,.23-.42,.1,.14,.29,.28,.3,.42,.03,.77,.01,1.53,.01,2.3Z"/>
      <path class="cls-1" d="M33.16,62.46c-.11-.15-.32-.31-.32-.46-.02-1.56-.02-3.11,0-4.67,0-.14,.16-.28,.24-.43,.1,.09,.3,.18,.3,.27,.02,1.73,.01,3.46,.01,5.19-.08,.03-.15,.07-.23,.1Z"/>
      <path class="cls-1" d="M23.5,22.45c.29,.39,.6,.63,.57,.82-.03,.21-.36,.5-.58,.52-.17,.02-.53-.31-.54-.5,0-.22,.27-.45,.55-.84Z"/>
      <path class="cls-1" d="M21.77,22.19c.23,.36,.35,.54,.51,.8-.23,.16-.43,.29-.81,.55,.11-.51,.19-.83,.3-1.35Z"/>
      <path class="cls-1" d="M22.62,24.88c.18-.12,.36-.23,.61-.39,.15,.21,.28,.39,.54,.74-.5-.08-.82-.13-1.14-.18,0-.06,0-.11,0-.17Z"/>
      <path class="cls-1" d="M23.5,21.31c.31,.07,.61,.13,1.08,.24-.32,.21-.52,.34-.77,.5-.15-.21-.29-.4-.42-.58,.04-.05,.07-.1,.11-.16Z"/>
      <path class="cls-1" d="M24.73,23.54c.27-.16,.45-.28,.8-.5-.09,.47-.16,.79-.25,1.28-.23-.33-.37-.52-.55-.78Z"/>
    </g>
  </g>
</svg>