<?xml version="1.0" encoding="UTF-8"?>
<svg id="Layer_2" data-name="Layer 2" xmlns="http://www.w3.org/2000/svg" viewBox="0 0 22.02 14.48">
  <defs>
    <style>
      .cls-1 {
        fill: #fff;
      }
    </style>
  </defs>
  <g id="Layer_1-2" data-name="Layer 1">
    <path class="cls-1" d="M9.74,12.09c0,.37,0,.73,0,1.08-.02,.8-.5,1.3-1.29,1.3-2.38,0-4.76,0-7.14,0-.81,0-1.3-.51-1.31-1.33C0,11.22,0,9.3,0,7.38c0-.5,.19-.88,.6-1.17,.11-.08,.19-.27,.21-.41,.05-.51,0-1.04,.1-1.54C1.37,1.98,3.57,.59,5.84,1.12c.11,.03,.22,.05,.35,.08C6.52,.25,7.28,0,8.19,0,11.14,0,14.1,0,17.05,0c1.02,0,1.71,.48,2.1,1.41,.3,.73,.6,1.45,.91,2.21,.32-.09,.62-.18,.92-.24,.64-.13,1.05,.18,1.04,.83,0,.34,0,.72-.17,.99-.16,.27-.53,.41-.8,.61-.04-.03-.07-.06-.11-.08,.08,.22,.18,.44,.22,.67,.13,.73,.32,1.46,.35,2.19,.05,1.49,.02,2.98,.01,4.47,0,.81-.35,1.16-1.15,1.17-.39,0-.77,.01-1.16,0-.58-.03-.95-.41-.98-.99,0-.19,0-.37,0-.56,0-.19,0-.37,0-.59H9.74Zm-.78-6.24c.09,.02,.13,.03,.17,.03,3.22,0,6.45,0,9.67,0,.53,0,.71-.3,.5-.81-.47-1.17-.94-2.33-1.43-3.49-.21-.51-.62-.79-1.17-.79-2.71,0-5.41,0-8.12,0-.48,0-.85,.22-1.11,.62-.15,.23-.16,.41,.09,.62,.79,.68,1.24,1.56,1.35,2.6,.04,.4,.04,.79,.06,1.22Zm-1.1,.16c.25-1.55-.27-2.84-1.41-3.54-1.04-.64-2.37-.59-3.36,.13-1.02,.74-1.51,2.14-1.19,3.4H7.86Zm9.94,1.99c-.44,0-.89,0-1.33,0-.32,0-.47,.16-.47,.47,0,.4,0,.8,0,1.2,0,.32,.18,.47,.48,.47,.89,0,1.77,0,2.66,0,.31,0,.48-.17,.48-.48,0-.39,0-.77,0-1.16,0-.36-.18-.52-.53-.51-.43,0-.86,0-1.29,0Zm-11.76,1.93c0-.52-.25-.81-.64-1-.46-.22-.99-.14-1.36,.2-.31,.29-.41,.63-.28,1.05,.18,.54,.33,1.09,.47,1.64,.09,.34,.26,.57,.65,.56,.38,0,.54-.24,.63-.59,.12-.5,.28-.98,.42-1.48,.04-.15,.09-.3,.11-.39Z"/>
  </g>
</svg>