<?xml version="1.0" encoding="UTF-8"?>
<svg id="Layer_2" data-name="Layer 2" xmlns="http://www.w3.org/2000/svg" viewBox="0 0 24.72 50.61">
  <defs>
    <style>
      .cls-1 {
        opacity: .5;
      }

      .cls-1, .cls-2 {
        fill: #fff;
      }

      .cls-2 {
        opacity: .8;
      }

      .cls-3 {
        fill: #f55049;
      }

      .cls-4 {
        fill: #f6969b;
      }

      .cls-5 {
        fill: #0600ff;
      }

      .cls-6 {
        fill: #972527;
      }

      .cls-7 {
        fill: #494543;
      }

      .cls-8 {
        fill: red;
      }
    </style>
  </defs>
  <g id="Layer_1-2" data-name="Layer 1">
    <g>
      <path class="cls-8" d="M14.34,50.61h-4.2c-.95,0-1.73-1.04-1.73-2.32-.36-2.14-.68-4.96-.62-8.27,.05-2.61,.31-4.87,.62-6.7,0-.15,.01-.98,.51-1.64,.31-.42,.74-.68,1.22-.68h4.2c.95,0,1.73,1.04,1.73,2.32,.31,1.88,.58,4.22,.61,6.92,.04,3.2-.26,5.94-.61,8.05-.02,.23-.12,.93-.56,1.53-.46,.62-.99,.76-1.16,.79Z"/>
      <path class="cls-5" d="M13.75,20.47h-2.63c-.6,0-1.08-.65-1.08-1.46-.23-1.34-.43-3.11-.39-5.19,.03-1.63,.2-3.05,.39-4.2,0-.1,0-.61,.32-1.03,.2-.26,.47-.43,.77-.43h2.63c.6,0,1.08,.65,1.08,1.46,.19,1.18,.36,2.64,.38,4.34,.02,2.01-.16,3.73-.38,5.04-.02,.15-.08,.58-.35,.96-.29,.39-.62,.47-.73,.49Z"/>
      <g>
        <path class="cls-1" d="M21.34,42.25c-.23-.14-.45-.28-.68-.42-.13-.29-.27-.55-.65-.5-.04,.04-.08,.07-.12,.1,.04-.03,.09-.06,.12-.1-.02-.34,.05-.74-.51-.65,.03-.07,.07-.14,.1-.2,0-.04,0-.08,0-.12-.21-.01-.41-.02-.62-.03-.14-.25-.2-.58-.64-.5-.11,.02-.35-.17-.3-.33,.02-.08,.26-.31,.47-.13,.34,.29,.85,.27,1.15,.71,.1,.15,.7,.21,1.06,.01,.19-.61,.65-1.14,.55-1.84-.35-.43-.48-1.01-.92-1.38h0c-.38-.26-.79-.38-1.24-.25-.04,0-.08-.01-.11-.01-.31-.02-.54,.19-.81,.27l-.22,.13c-.18-.03-.31-.11-.37-.3-.12-.39-.4-.52-.79-.45-.03,.04-.06,.08-.09,.12-.06,.29-.12,.58-.19,.87-.01,.21-.1,.4-.25,.55,.25,.11,.24,.35,.3,.57,.16,.61-.07,1.27,.3,1.84,.05,.38,.03,.77,.2,1.13,0,.61,.12,1.19,.44,1.72,0,0,0,0,0,0,0,0,0,0,0,0,.02,.09,.04,.18,.06,.27,.27,1.05,1.01,1.59,2.01,1.33,.09,.01,.18,.02,.27,.03,.02-.02,.04-.04,.06-.06h0s-.04,.04-.06,.06c-.06,.11-.21,.27,.09,.23,.13-.02,.26-.11,.38-.16h0c.6-.74,1.33-1.42,1.03-2.53Zm-1.98-3.31c.13,0,.27,0,.32,.1-.06-.1-.19-.1-.32-.1-.11,0-.22,0-.3,.05,.08-.05,.2-.04,.3-.05Zm-.83-1.78s.03-.02,.05-.02h0s-.04,.04-.06,.06c0-.01,0-.03,0-.03Zm-.03,.59c-.03-.08-.04-.22-.09-.28,.06,.06,.07,.2,.09,.28Zm.45,6.19h0s0,0,0,0h0Zm1.29,.42c0,.09-.05,.17-.08,.26,.03-.09,.07-.17,.08-.26Z"/>
        <path class="cls-1" d="M5.11,36.64c-.2,1.66,.24,3.21,.82,4.74,.18-.33,.21-.68,.21-1.05,0-1.04,.02-2.08,.19-3.1-.01-.96-.13-1.93,.11-2.89,0,0,0,0,0,0h-.03c0-.14,.02-.28,.03-.41,.04,.06,.08,.11,.13,.17,.03,0,.06,0,.09,.02,0-.38,0-.75,0-1.13-.79,1.1-1.45,2.26-1.56,3.66Z"/>
        <path class="cls-7" d="M17.14,32.57c.12-.14,.23-.29,.23-.49,.2,.31,.08,.67,.16,1-.29,.22-.47-.1-.71-.1-.05-.3,.36-.16,.32-.41Z"/>
        <path class="cls-3" d="M17.68,15.08c-.04,.07-.08,.14-.13,.21,.04-.07,.08-.14,.13-.21Z"/>
        <path class="cls-7" d="M17.53,34.71c.1,.04,.28,.05,.18,.2-.07,.1-.22,.04-.29-.08,.07,0,.11-.04,.11-.12Z"/>
        <path class="cls-2" d="M19.4,34.54c.29,.11,.54,.31,.82,.47-.31-1.44-1.5-1.16-2.56-1.23,.31-.36,.44-.63-.11-.7-.29,.22-.47-.1-.71-.1-.05-.3,.36-.16,.32-.41,.12-.14,.23-.29,.23-.49,.4-1.32,.5-2.7,.74-4.05,.12-.69-.12-1.24-.67-1.67-.08,.03-.11,.09-.13,.15,.02-.07,.05-.12,.13-.15-.06-.09-.11-.19-.17-.28-.04-.03-.07-.07-.11-.1-.04,0-.09,.01-.13,.02-.05-.06-.1-.13-.15-.19-.29,.11-.5-.11-.75-.19-.12,0-.24,0-.36,0-2.08-.44-4.18-.36-6.28-.15-.09-.02-.19-.04-.28-.06-.35,.24-.75,.17-1.14,.16-.06,.11-.15,.14-.26,.14-.04,.1-.13,.11-.22,.11-.2,.3-.63,.33-.79,.67-.39,.38-.52,.85-.46,1.38,.17,1.57,.33,3.15,.5,4.72-.06,.12-.12,.24-.18,.37,0,.38,0,.75,0,1.13-.11,1.04-.22,2.08-.33,3.12-.17,1.03-.19,2.07-.19,3.1,0,.37-.03,.72-.21,1.05,.13,.25-.12,.63,.29,.77h0c.15-.02,.3-.03,.45-.04,.71,.27,.91-.27,1.15-.74,0-.25,0-.51,0-.76-.3-.78-.02-1.58-.11-2.36,.21,.09,.23-.16,.36-.21,0-.11,0-.23,0-.34,.2,.25,.5,.18,.75,.24,1.78-.01,3.56-.02,5.35-.03,.23,0,.47-.02,.7-.03-.01-.37,.05-.72,.17-1.1-.11,.38-.18,.73-.17,1.1,.26,0,.51,.01,.77,.02,.04,.02,.07,.04,.11,.05,.16-.03,.33-.06,.49-.09l.02-.03c.14-.16,.23-.34,.25-.55,.06-.29,.12-.58,.19-.87,.03-.04,.06-.08,.09-.12-.04-.2-.04-.41-.03-.61-.01,.21-.02,.41,.03,.61,.39-.07,.67,.06,.79,.45,.06,.19,.19,.27,.37,.3,.07-.04,.15-.09,.22-.13,.27-.08,.51-.29,.81-.27-.24-.66-.31-1.41-.87-1.93-.07,0-.15,.05-.18-.05,0,0,.1-.04,.15-.06,.43-.62,.9-.19,1.33-.03Zm-11.95-1.56c0-.12-.02-.26-.02-.38,0,.13,.02,.27,.02,.38,0,.11,.02,.19,.06,.23-.04-.05-.06-.12-.06-.23Zm.1-4.93s.03-.03,.03-.03l-.03,.03Zm.68-.27s-.07-.01-.11-.02c.03,.01,.07,.02,.11,.02h0Zm7.54,4.01c-.15-.07-.3-.1-.45-.09,.15,0,.3,.02,.45,.09,.35,.19,.77,.24,1.09,.48-.32-.23-.74-.29-1.09-.48Zm1.53,3.07s0-.07,0-.1h0s0,.07,0,.1Zm0-.1s0,0,0,0c0,0,0,0,0,0h0Zm.7,1.61c.06,.03,.1,.06,.12,.1-.03-.04-.06-.07-.12-.1Z"/>
        <path class="cls-7" d="M18.07,34.57s.05,.07,.04,.11c-.07,0-.15,.05-.18-.05,0,0,.1-.04,.15-.06Z"/>
        <path class="cls-2" d="M19.41,15.8c-.06-1.13-.15-2.26-.23-3.38,.06-1.19,.03-2.38-.27-3.53-.21-.83-.34-1.76-1.45-1.92-.28-.15-.47,.05-.67,.19-.19,.13-.33,.41-.63,.26-.05,.09-.09,.19-.14,.28-.04,.04-.07,.09-.11,.13h.02s-.02,0-.02,0c-.25,.18-.51,.1-.77,.05-.36,.02-.19,.43-.41,.55,.06,.32-.11,.6-.16,.91-.07,.08-.13,.17-.2,.25-.04,.08-.09,.16-.13,.24-.84,.46-1.72,.63-2.67,.4-.33-.08-.62-.2-.9-.37,0,.15-.08,.25-.17,.34,.09-.09,.17-.19,.17-.34-.08-.06-.17-.12-.25-.17-.05-.59-.1-1.17-.16-1.76-.38-.14-.78,.11-1.16-.05-.04-.12-.08-.23-.12-.35-.49,.03-.62-.62-1.11-.58-.66,.12-1.12,.48-1.34,1.13-.4,1.2-.69,2.41-.6,3.69-.18,1.52-.31,3.05-.26,4.58,0,.29-.04,.61,.26,.81,.32-.22,.21-.57,.23-.87,.04-.48,.05-.96,.07-1.44-.12-.3,.07-.59,.26-.64,.29-.08,.28,.28,.36,.48,.41,.95,.89,1.86,1.23,2.83,.07,.2,.16,.39,.15,.61,.31,.28,.43,.68,.56,1.05,.3,.88,.84,1.46,1.81,1.53,1.52,.08,3.04,.05,4.55-.1,.61-.67,.89-1.52,1.3-2.3,.07-.71,.51-1.28,.74-1.94,.12-.36,.26-.71,.38-1.07l.13-.21c.01-.06,.03-.12,.04-.19,.18-.31,.36-.62,.55-.92,.05-.08,.07-.23,.2-.21,.16,.02,.18,.16,.2,.28,.09,.5,.17,1,.26,1.49,0-.34,.03-.68,.03-1.02,0,.34-.03,.68-.03,1.02,.02,.55-.12,1.12,.15,1.66,.32-.42,.35-.91,.32-1.4Zm-10.96-2.72c-.14-.32-.22-.65-.25-1,.03,.34,.11,.68,.25,1,.03,.7,.19,1.37,.37,2.04-.18-.67-.34-1.34-.37-2.04Zm1.8-2.59h-1.21c.45,0,.83,0,1.21,0,0,0,0,0,0,0Zm6.6,2.46c0-.29,.1-.58-.1-.84,0,0,0,0,0,0,.2,.26,.1,.55,.1,.84Zm-.02-1.2c.06-.37,.07-.74,.06-1.11-.48-.03-.96-.04-1.41-.14,.45,.1,.94,.12,1.41,.14,0,.37,0,.75-.06,1.11Z"/>
        <polygon class="cls-7" points="15.9 7.81 15.9 7.81 15.92 7.82 15.9 7.81"/>
        <g>
          <path class="cls-2" d="M18.1,34.68c.56,.52,.63,1.26,.87,1.93,.04,0,.08,0,.11,.01,.46-.12,.86,0,1.24,.25,.45,.37,.58,.94,.92,1.38,.13-.64-.17-1.18-.39-1.74-.2-.51-.54-.96-.65-1.51-.27-.16-.52-.37-.82-.47-.44-.16-.91-.59-1.33,.03,.04,.03,.05,.07,.04,.11Z"/>
          <path class="cls-2" d="M20.71,40.09c-.36,.19-.96,.14-1.06-.01-.3-.44-.81-.42-1.15-.71-.21-.18-.45,.05-.47,.13-.04,.16,.19,.35,.3,.33,.44-.09,.5,.24,.64,.5,.21,.01,.41,.02,.62,.03,.06,0,.14-.03,.2-.04-.06,0-.14,.03-.2,.04,0,.04,0,.08,0,.12-.03,.07-.07,.14-.1,.2,.56-.09,.49,.31,.51,.65,.38-.04,.53,.21,.65,.5,.23,.14,.45,.28,.68,.42,0-.78-.33-1.46-.63-2.16Z"/>
        </g>
        <path class="cls-1" d="M19.09,17.2c-.26-.53-.12-1.1-.15-1.66-.09-.5-.17-1-.26-1.49-.02-.12-.05-.27-.2-.28-.14-.02-.15,.13-.2,.21-.19,.3-.37,.61-.55,.92-.01,.06-.03,.12-.04,.19-.04,.07-.08,.14-.13,.21-.12,.36-.26,.71-.38,1.07-.22,.66-.66,1.23-.74,1.94,.19,.05,.22,.17,.22,.3,0-.13-.03-.25-.22-.3-.41,.78-.69,1.63-1.3,2.3-1.51,.15-3.03,.18-4.55,.1-.97-.07-1.51-.65-1.81-1.53-.13-.37-.24-.77-.56-1.05,.01-.22-.08-.41-.15-.61-.34-.98-.83-1.89-1.23-2.83-.08-.2-.08-.56-.36-.48-.19,.05-.37,.34-.26,.64,.07,.03,.13,.06,.18,.11-.04-.04-.1-.08-.18-.11-.02,.48-.03,.96-.07,1.44-.02,.3,.09,.64-.23,.87,.18,.51,.36,1.01,.74,1.42,.27,.74,.98,1.29,.95,2.17,0,1.7,0,3.4,0,5.1,.09,0,.18-.01,.22-.11,.11,0,.21-.03,.26-.14,.39,0,.79,.08,1.14-.16,.09,.02,.19,.04,.28,.06,2.1-.21,4.19-.29,6.28,.15,.12,0,.24,0,.36,0,.25,.08,.46,.3,.75,.19,.05,.06,.1,.13,.15,.19,.04,0,.09-.01,.13-.02,.04,.03,.07,.07,.11,.1,0-.85,.01-1.69,.02-2.53,.17-.93,.08-1.86,.1-2.79,0-.44,.12-.81,.34-1.19,.45-.79,1.05-1.49,1.35-2.37Z"/>
        <g>
          <polygon class="cls-4" points="17.89 5.3 17.92 5.31 17.93 5.3 17.92 5.29 17.89 5.3"/>
          <path class="cls-1" d="M24.49,.34c-.84-.24-1.68-.46-2.56-.26-.86,.2-1.39,1.18-1,1.81-.04,.27-.22,.36-.46,.43-.42,.13-.82,.31-1.22,.47-.02,.13-.05,.26-.07,.39,.02-.13,.05-.26,.07-.39-.36,.09-.57-.33-.92-.27-.2-.12-.41-.15-.64-.09-.26-.06-.43,.15-.65,.22-.33-.01-.11,.31-.25,.41-.05,0-.11-.02-.1,.06,0,0,.06,0,.09,.01,.31,.18,.15,.65,.5,.81,.01,.05,.02,.09,.03,.14,0,.06,0,.13-.01,.19-.69,.01-1.39,.02-2.08,.03-.28,0-.52,.02-.54-.4-.01-.32-.37-.18-.58-.22-.22-.04-.31,.1-.28,.3,.04,.3-.16,.55-.18,.84h-2.57c.9,.1,1.8,.23,2.7,.06,.1-.02,.19-.04,.29-.06,.05,.06,.09,.12,.14,.18-1.15,.06-2.31,.07-3.46,0,.19-.13,.15-.35,.22-.53,.09,.04,.17,.07,.26,.11,.16,.02,.33,.04,.49-.08-.19-.06-.36-.11-.53-.16-.08-.38-.09-.84-.7-.6-.22-.07-.23,.07-.24,.23,0,.18,0,.38-.26,.38-.72,.06-1.44,.13-2.15,.19-.19,.02-.42,.16-.56-.11,.02-.03,.02-.06,0-.09,.05-.09,.09-.18,.14-.28,.38-.26,.65-.56,.37-1.06,.3-.14,.44-.27,.03-.47-.4-.19-.81-.17-1.23-.08-.44,.09-.87,.33-1.33,.07-.01,.03-.02,.06-.04,.09,.01-.03,.02-.06,.04-.09h0s0,0,0,0h0s-.09,0-.13,0h0c-.49-.04-.98-.12-1.33-.52,.38-.41,.5-.81-.05-1.19C3.18-.07,2.3,.03,1.43,.12c-.32,0-.63,.07-.92,.21,0,0,0,0,0,0C.07,.3-.06,.53,.02,.93c.12,.55,.34,.98,.96,1.12,.45,.1,.89,.28,1.31,.47,.56,.25,.95,.02,1.29-.39,.06,.19,0,.5,.27,.51,.66,.02,1.17,.53,1.82,.54,.4,.13,.81,.26,1.21,.39-.4-.13-.81-.26-1.21-.39,.01,.32,.33,.56,.22,.91-.15,.09-.11,.24-.13,.38-.13,.05-.25,.11-.38,.16-1.06,.03-2.05,.42-3.09,.54-.05,0-.09,.13-.13,.19-.02,.55,.12,.77,.75,.54,.59-.22,1.25-.24,1.85-.42,.47-.14,.97,0,1.41-.24,.32,.53,.53,.5,1.02-.14,.95-.33,1.94-.3,2.93-.36,.05,.12,0,.19-.12,.24-.87,.36-1,.54-.54,1.37,.22,.41-.19,.43-.17,.66-.52-.07-.3,.31-.33,.54,.04,.12,.08,.23,.12,.35,.38,.16,.78-.08,1.16,.05,.09-.25,.26-.46,.46-.61-.2,.16-.36,.36-.46,.61,.05,.59,.1,1.17,.16,1.76,.08,.06,.17,.12,.25,.17,.28,.17,.58,.29,.9,.37,.95,.23,1.83,.06,2.67-.4,.04-.08,.09-.16,.13-.24h0c.07-.08,.13-.17,.2-.25,.04-.3,.22-.58,.16-.91,.22-.12,.05-.53,.41-.55,.26,.05,.53,.13,.77-.05,0,0,0,0,0,0,.04-.04,.07-.09,.11-.13,.05-.09,.09-.19,.14-.28,.06-.32-.08-.42-.38-.35-.36-.14-.04-.49-.21-.69,.12-.1,.1-.23,.11-.36,.13-.05,.1-.16,.11-.26,.12-.47-.03-.63-.64-.65-.1-.13-.36-.37,.01-.35,.76,.05,1.58-.33,2.29,.27,.09,.08,.28,.12,.39-.04,.13,.08,.22,.17,.11,.33,.28,.17,.58,.53,.77-.09,0-.12,0-.23,0-.35-.12,0-.21-.06-.28-.16,.07,.1,.16,.15,.28,.16,0,.12,0,.23,0,.35,.05,.03,.11,.09,.16,.09,1.12-.01,2.19,.27,3.24,.62,.3,.1,.4,.01,.44-.21,.05-.24,.29-.6-.26-.61-1.03-.23-2.06-.46-3.09-.68-.03-.23,.12-.34,.3-.42-.16-.12-.31-.16-.48-.16,.07-.22,.14-.45,.21-.67,.72-.24,1.46-.44,2.14-.79,.26,0,.4,.32,.73,.2,.73-.26,1.48-.47,2.16-.85,.39-.22,.38-.68,.45-1.07,.03-.17-.05-.27-.23-.32ZM7.04,3.6h0c.08-.06,.11-.11,.12-.14,0,.04-.04,.08-.12,.14Zm6.1,6h0c-.34,.18-.71,.04-1.06,.12-.17-.03-.34-.03-.49-.09-.2-.08-.49-.08-.56-.34-.07-.31,.27-.32,.41-.48,.67-.19,1.35-.17,2.02,0,.16,.13,.33,.27,.49,.4-.17,.34-.56,.21-.81,.4Zm.48-.81c.12,0,.24,0,.26-.09-.02,.09-.14,.09-.26,.09Zm.37-.95c-.07,.19-.02,.42-.15,.59h-.04s0,.01,0,.01c-.63,.03-1.26,.04-1.89,.09-.29,.02-.54-.06-.77-.22-.23-.41-.11-.73,.34-.78,.75-.08,1.51,.04,2.26-.06,.14-.02,.35,.09,.26,.36Zm-.03-1.51c-1.03,.4-2.06,.26-3.09,.03-.25-.05-.29-.28-.29-.5,.22-.4,.54-.54,.99-.52,.57,.03,1.14,.05,1.71,0,.54-.05,.84,.17,.99,.66h0c.02,.22-.16,.27-.31,.33Zm.6-1.32h.02s0-.01,0-.01h-.02Zm.45,.57c-.08-.12-.19-.19-.3-.21,.12,.02,.22,.09,.3,.21Zm2.62-2.19h0s0,0,.01,.02c0,0-.01-.02-.01-.02Zm.06,.86s-.02,.04-.04,.05c.01,0,.02-.02,.03-.05,0,0,0-.02,.01-.02,0,0,0,0,0,0,0,0,0,.01-.01,.02Zm.4,.49s.09-.02,.13-.03h0s-.09,.02-.13,.03Z"/>
        </g>
      </g>
      <path class="cls-6" d="M14.56,33.71h-4.92c-.27,0-.51-.15-.62-.39l-.85-1.76c-.22-.46,.11-1,.62-1h6.63c.51,0,.85,.54,.62,1l-.85,1.76c-.12,.24-.36,.39-.62,.39Z"/>
    </g>
  </g>
</svg>